0.06m3min_grf.mot
version=1
nRows=27
nColumns 19
inDegrees=yes
endheader
time	1_ground_force_vx	1_ground_force_vy	1_ground_force_vz	1_ground_force_px	1_ground_force_py	1_ground_force_pz	1_ground_torque_x	1_ground_torque_y	1_ground_torque_z	2_ground_force_vx	2_ground_force_vy	2_ground_force_vz	2_ground_force_px	2_ground_force_py	2_ground_force_pz	2_ground_torque_x	2_ground_torque_y	2_ground_torque_z
            0.005000	          -25.734234	         1124.957697	         -103.656518	           -0.257503	            0.006148	           -0.388832	           -0.094457	            4.129132	           -0.380469	           -4.302570	         1193.401853	          125.240383	           -0.285949	            0.005429	           -0.691477	           -0.000696	            0.192929	            0.020247
            0.005500	          -26.192487	         1125.858377	         -103.513944	           -0.257564	            0.006148	           -0.388864	           -0.088024	            3.783633	           -0.347876	           -4.498713	         1195.796026	          125.014372	           -0.285915	            0.005429	           -0.691463	           -0.000498	            0.132306	            0.013832
            0.006000	          -26.467662	         1127.120079	         -103.461998	           -0.257530	            0.006148	           -0.388855	           -0.080059	            3.409293	           -0.312950	           -4.785774	         1197.452293	          125.067326	           -0.285953	            0.005429	           -0.691487	           -0.000622	            0.155707	            0.016263
            0.006500	          -26.605434	         1127.841189	         -103.504418	           -0.257561	            0.006148	           -0.388820	           -0.078371	            3.322248	           -0.304890	           -4.881967	         1198.187178	          125.445419	           -0.286025	            0.005429	           -0.691371	           -0.000379	            0.092993	            0.009736
            0.007000	          -26.697527	         1128.202354	         -103.640216	           -0.257584	            0.006148	           -0.388838	           -0.084800	            3.583517	           -0.329193	           -5.033192	         1201.133257	          125.362135	           -0.285879	            0.005430	           -0.691548	           -0.000489	            0.116617	            0.012171
            0.007500	          -27.110493	         1129.644596	         -103.678860	           -0.257545	            0.006148	           -0.388813	           -0.097488	            4.062131	           -0.372823	           -4.944685	         1202.605716	          125.648920	           -0.285919	            0.005430	           -0.691644	           -0.000265	            0.064443	            0.006733
            0.008000	          -27.523827	         1130.006288	         -103.951433	           -0.257580	            0.006148	           -0.388853	           -0.105034	            4.312246	           -0.396692	           -5.558386	         1203.892563	          125.653779	           -0.285955	            0.005429	           -0.691468	           -0.000285	            0.061679	            0.006438
            0.008500	          -28.073945	         1131.267496	         -103.852938	           -0.257538	            0.006148	           -0.388898	           -0.103150	            4.156549	           -0.381581	           -5.609930	         1205.181775	          125.564542	           -0.285972	            0.005429	           -0.691464	           -0.000068	            0.014647	            0.001526
            0.009000	          -28.486291	         1131.807837	         -103.712023	           -0.257637	            0.006148	           -0.388823	           -0.096250	            3.824183	           -0.350425	           -5.566444	         1206.103165	          125.473951	           -0.286060	            0.005429	           -0.691464	            0.000556	           -0.120512	           -0.012537
            0.009500	          -28.669046	         1132.166970	         -103.434895	           -0.257675	            0.006148	           -0.388881	           -0.090721	            3.582647	           -0.327311	           -5.478082	         1207.576796	          125.432247	           -0.286025	            0.005429	           -0.691435	            0.000576	           -0.127042	           -0.013196
            0.010000	          -29.127278	         1131.085349	         -103.438394	           -0.257689	            0.006149	           -0.389075	           -0.090333	            3.507876	           -0.320797	           -5.713640	         1207.944187	          125.480582	           -0.286072	            0.005429	           -0.691463	            0.000572	           -0.120835	           -0.012552
            0.010500	          -29.448117	         1133.247811	         -103.244898	           -0.257693	            0.006147	           -0.388754	           -0.099787	            3.840107	           -0.349854	           -6.047009	         1209.416965	          125.251345	           -0.286034	            0.005429	           -0.691434	            0.000805	           -0.160940	           -0.016667
            0.011000	          -29.722800	         1133.066749	         -103.107418	           -0.257674	            0.006148	           -0.388946	           -0.111364	            4.245336	           -0.386319	           -6.094359	         1209.599537	          125.627446	           -0.286054	            0.005428	           -0.691347	            0.000986	           -0.195641	           -0.020319
            0.011500	          -30.273632	         1133.248241	         -103.380422	           -0.257629	            0.006149	           -0.389056	           -0.116837	            4.373635	           -0.398984	           -6.146628	         1211.073330	          125.398074	           -0.285966	            0.005429	           -0.691489	            0.001418	           -0.279374	           -0.028927
            0.012000	          -30.456908	         1133.968753	         -103.285156	           -0.257638	            0.006148	           -0.388913	           -0.112171	            4.176325	           -0.380392	           -6.334673	         1211.256810	          125.445747	           -0.285975	            0.005429	           -0.691324	            0.001388	           -0.265416	           -0.027488
            0.012500	          -31.143710	         1134.327640	         -102.915056	           -0.257803	            0.006148	           -0.388950	           -0.104985	            3.823802	           -0.346925	           -6.243213	         1211.811395	          124.884541	           -0.286067	            0.005428	           -0.691265	            0.001872	           -0.363417	           -0.037452
            0.013000	          -31.694149	         1133.607135	         -103.100206	           -0.257718	            0.006149	           -0.389052	           -0.097387	            3.483251	           -0.316797	           -6.292118	         1212.364211	          124.745740	           -0.286041	            0.005428	           -0.691361	            0.001993	           -0.384012	           -0.039513
            0.013500	          -31.830735	         1134.686920	         -102.636675	           -0.257741	            0.006148	           -0.388927	           -0.100955	            3.598808	           -0.325526	           -6.762632	         1212.915170	          124.700990	           -0.285968	            0.005428	           -0.691302	            0.002233	           -0.400488	           -0.041175
            0.014000	          -32.106036	         1134.146446	         -102.775868	           -0.257727	            0.006149	           -0.389024	           -0.113887	            4.023078	           -0.364570	           -6.716467	         1213.099586	          124.654691	           -0.285971	            0.005428	           -0.691153	            0.002554	           -0.461267	           -0.047398
            0.014500	          -32.380276	         1132.162714	         -102.600265	           -0.257686	            0.006150	           -0.389261	           -0.124642	            4.358063	           -0.394942	           -7.000267	         1213.835713	          124.563584	           -0.285952	            0.005428	           -0.691239	            0.002770	           -0.480329	           -0.049291
            0.015000	          -33.206125	         1133.965862	         -102.728058	           -0.257772	            0.006149	           -0.389090	           -0.129779	            4.431849	           -0.401489	           -6.859799	         1213.836890	          124.375812	           -0.285885	            0.005429	           -0.691239	            0.003046	           -0.538939	           -0.055222
            0.015500	          -33.205115	         1133.423523	         -102.363530	           -0.257738	            0.006149	           -0.389068	           -0.122986	            4.198021	           -0.379138	           -7.143680	         1214.573442	          124.096991	           -0.285944	            0.005428	           -0.691217	            0.003276	           -0.557001	           -0.056911
            0.016000	          -33.709239	         1133.243055	         -102.317199	           -0.257746	            0.006149	           -0.389079	           -0.112392	            3.778412	           -0.341142	           -6.953204	         1213.655241	          123.530488	           -0.285990	            0.005428	           -0.691093	            0.003958	           -0.690855	           -0.070318
            0.016500	          -34.257824	         1132.339230	         -101.769427	           -0.257786	            0.006149	           -0.389145	           -0.108936	            3.600717	           -0.323616	           -6.953286	         1213.655910	          123.342775	           -0.285894	            0.005427	           -0.690939	            0.004157	           -0.725655	           -0.073748
            0.017000	          -34.715879	         1133.419692	         -101.534376	           -0.257754	            0.006148	           -0.388913	           -0.113755	            3.713917	           -0.332701	           -7.281359	         1213.655730	          123.061346	           -0.285844	            0.005428	           -0.691016	            0.004628	           -0.771442	           -0.078222
            0.017500	          -34.991021	         1133.239661	         -101.580318	           -0.257602	            0.006149	           -0.388998	           -0.126973	            4.112208	           -0.368606	           -7.560608	         1213.103404	          122.731005	           -0.285929	            0.005427	           -0.690935	            0.004922	           -0.789735	           -0.079898
            0.018000	          -35.311022	         1131.435898	         -101.357976	           -0.257626	            0.006149	           -0.389113	           -0.138893	            4.450399	           -0.398682	           -7.655014	         1213.287724	          122.637847	           -0.285899	            0.005428	           -0.691050	            0.005502	           -0.872077	           -0.088149
